<svg width="17" height="17" viewBox="0 0 17 17" fill="none" xmlns="http://www.w3.org/2000/svg">
<path d="M12.1132 17H4.8868C2.19228 17 0 14.8077 0 12.1132V4.8868C0 2.19228 2.19228 0 4.8868 0H12.1132C14.8077 0 17 2.19228 17 4.8868V12.1132C17 14.8077 14.8077 17 12.1132 17ZM4.8868 1.19009C2.84822 1.19009 1.19009 2.8488 1.19009 4.8868V12.1132C1.19009 14.1518 2.8488 15.8099 4.8868 15.8099H12.1132C14.1518 15.8099 15.8099 14.1512 15.8099 12.1132V4.8868C15.8099 2.84822 14.1512 1.19009 12.1132 1.19009H4.8868Z" fill="black"/>
<path d="M8.49996 12.7251C6.17024 12.7251 4.2749 10.8297 4.2749 8.49999C4.2749 6.17027 6.17024 4.27493 8.49996 4.27493C10.8297 4.27493 12.725 6.17027 12.725 8.49999C12.725 10.8297 10.8297 12.7251 8.49996 12.7251ZM8.49996 5.46445C6.82618 5.46445 5.46442 6.82621 5.46442 8.49999C5.46442 10.1738 6.82618 11.5355 8.49996 11.5355C10.1737 11.5355 11.5355 10.1738 11.5355 8.49999C11.5355 6.82621 10.1737 5.46445 8.49996 5.46445Z" fill="black"/>
<path d="M13.4058 4.85994C13.971 4.72654 14.3211 4.16023 14.1877 3.59504C14.0543 3.02985 13.488 2.67982 12.9228 2.81321C12.3576 2.94661 12.0076 3.51292 12.1409 4.07811C12.2743 4.6433 12.8407 4.99334 13.4058 4.85994Z" fill="black"/>
</svg>
