<svg width="20" height="20" viewBox="0 0 20 20" fill="none" xmlns="http://www.w3.org/2000/svg">
<path fill-rule="evenodd" clip-rule="evenodd" d="M14.3885 12.7322C15.7901 13.0935 17.1718 13.6282 18.5106 14.5252C18.807 14.7243 18.9744 15.0165 18.9881 15.3636C18.9995 15.6367 19.0069 15.9185 18.9903 15.9514C18.2775 17.3803 17.6179 18.5312 15.8216 18.903C9.89695 20.1296 -0.504973 9.42145 1.1828 3.83242C1.69455 2.13866 2.93625 1.58705 4.47095 1.00363C4.50636 0.989925 4.79822 1.01734 5.08152 1.04695C5.44135 1.08478 5.73378 1.26518 5.91941 1.56292C6.75786 2.9074 7.21708 4.26778 7.49466 5.63529C7.60204 6.16497 7.29133 6.68149 6.76015 6.85695L6.29808 7.00938C5.96967 7.11795 5.73321 7.33947 5.61269 7.65202C5.49218 7.96456 5.52074 8.28094 5.69608 8.56826C7.25363 11.1218 8.67067 12.5803 11.2152 14.25C11.5019 14.438 11.8286 14.4874 12.1616 14.3936C12.4946 14.2999 12.7413 14.0887 12.8772 13.7817L13.068 13.3496C13.2873 12.8528 13.8459 12.5913 14.3885 12.7311V12.7322Z" stroke="black" stroke-miterlimit="10"/>
</svg>
