<svg width="20" height="20" viewBox="0 0 20 20" fill="none" xmlns="http://www.w3.org/2000/svg">
<path d="M7.86212 9.43259L10.5674 12.1379C10.8856 12.456 11.4121 12.4456 11.7435 12.1141L12.0729 11.7848C12.4379 11.4198 13.0182 11.4079 13.3692 11.7589L14.7649 13.1546C15.1096 13.4993 15.1117 14.0748 14.7544 14.4356C14.7523 14.4377 14.7502 14.4398 14.7474 14.4426C14.4349 14.7551 14.0195 14.9376 13.5343 14.9984C11.9799 15.197 9.69479 14.172 7.76143 12.2386C5.82737 10.3045 4.803 8.01945 5.00088 6.46507C5.06241 5.9805 5.24491 5.56516 5.55747 5.25261C5.55956 5.25051 5.56166 5.24841 5.56446 5.24561C5.92526 4.88831 6.50072 4.88971 6.84544 5.23513L8.2411 6.63078C8.59211 6.9818 8.58023 7.56215 8.21523 7.92715L7.88589 8.25649C7.55446 8.58792 7.54397 9.11444 7.86212 9.43259Z" fill="black"/>
<path d="M10.0038 19.9998C8.34668 19.9998 6.71258 19.5893 5.26099 18.8076L0.957941 19.9606C0.699927 20.0299 0.422333 19.955 0.233542 19.7663C0.0447505 19.5775 -0.0293676 19.2999 0.0391567 19.0418L1.19218 14.7381C0.411845 13.2907 0 11.6545 0 10.0001C0 7.31441 1.06842 4.7867 3.00808 2.88201C4.94913 0.975214 7.49851 -0.0477557 10.1849 0.00119019C12.8168 0.0487377 15.283 1.11016 17.1304 2.98829C18.9798 4.86921 19.9993 7.35776 20 9.99595C20.0007 12.6313 18.9861 15.1192 17.1416 17.0008C15.297 18.8831 12.8301 19.9473 10.1954 19.9977C10.1311 19.9991 10.0668 19.9998 10.0031 19.9998H10.0038ZM5.29105 17.3581C5.49313 17.3581 5.69241 17.4085 5.87211 17.5077C7.17967 18.2279 8.66552 18.5929 10.1682 18.5643C14.7998 18.4755 18.5666 14.6325 18.5652 9.99734C18.5638 5.36077 14.7922 1.52061 10.1584 1.436C7.85932 1.39335 5.67633 2.27088 4.01287 3.90498C2.3501 5.53767 1.43412 7.70248 1.43412 10.0001C1.43412 11.444 1.79981 12.8712 2.49205 14.1277C2.64308 14.4025 2.68154 14.722 2.59973 15.0276L1.73129 18.2685L4.97221 17.4001C5.07779 17.3721 5.18477 17.3581 5.29105 17.3581Z" fill="black"/>
</svg>
