<svg width="18" height="17" viewBox="0 0 18 17" fill="none" xmlns="http://www.w3.org/2000/svg">
<path d="M11.5345 6.73512V8.14159H13.9123L13.5987 10.6093H11.5345V17H9.05578V10.6093H7V8.14159H9.05578V6.24231C9.05578 5.5531 9.20597 4.94319 9.50515 4.41988C10.0302 3.47085 10.9169 3 12.1653 3C12.8141 3 13.4221 3.03538 14 3.10735V5.31524H12.9018C12.2578 5.31524 11.8565 5.46284 11.7015 5.75804C11.6306 5.89222 11.5958 5.97273 11.5958 5.99956C11.5561 6.09837 11.5345 6.34478 11.5345 6.73391V6.73512Z" fill="white"/>
<rect x="0.5" y="0.5" width="17" height="16" rx="1.5" stroke="white"/>
</svg>
