<svg width="53" height="28" viewBox="0 0 53 28" fill="none" xmlns="http://www.w3.org/2000/svg">
<path d="M39.3639 0.469238H21.5637C19.9791 0.469238 18.694 1.83031 18.694 3.5087V22.3264H32.1974C32.1974 19.6472 34.2024 17.4767 36.6776 17.4767C39.1528 17.4767 41.1578 19.6482 41.1578 22.3264H41.2491C42.5886 22.3264 43.6736 21.1762 43.6736 19.7575V13.9198" stroke="white" stroke-width="0.85" stroke-linecap="round" stroke-linejoin="round"/>
<path d="M1.00006 16.5934V21.1998C1.00006 21.8221 1.51594 22.3263 2.15257 22.3263H4.98644C4.98644 19.651 7.15774 17.4819 9.83595 17.4819C12.5142 17.4819 14.6855 19.651 14.6855 22.3263H16.6123V2.55078C15.2981 2.56541 13.983 2.58004 12.6688 2.59467C11.4684 2.60832 10.3987 3.35347 9.97166 4.4741C9.08558 6.79926 8.1985 9.12344 7.31241 11.4486C7.11783 11.9587 6.74464 12.381 6.26168 12.6365C4.85273 13.3836 3.44278 14.1307 2.03382 14.8768C1.3982 15.2143 1.00006 15.8746 1.00006 16.5934Z" stroke="white" stroke-width="0.85" stroke-linecap="round" stroke-linejoin="round"/>
<path d="M35.8674 27.5303C33.8555 27.5303 32.2245 25.8994 32.2245 23.8875C32.2245 21.8756 33.8555 20.2446 35.8674 20.2446C37.8793 20.2446 39.5103 21.8756 39.5103 23.8875C39.5103 25.8994 37.8793 27.5303 35.8674 27.5303Z" stroke="white" stroke-width="0.85" stroke-linecap="round" stroke-linejoin="round"/>
<path d="M9.32652 27.5303C7.60204 27.5303 6.20408 25.8994 6.20408 23.8875C6.20408 21.8756 7.60204 20.2446 9.32652 20.2446C11.051 20.2446 12.449 21.8756 12.449 23.8875C12.449 25.8994 11.051 27.5303 9.32652 27.5303Z" stroke="white" stroke-width="0.85" stroke-linecap="round" stroke-linejoin="round"/>
<path d="M12.449 5.67334V11.9182H6.20408" stroke="white" stroke-width="0.85" stroke-linecap="round" stroke-linejoin="round"/>
<path d="M12.449 15.0405H11.4082" stroke="white" stroke-width="0.85" stroke-linecap="round" stroke-linejoin="round"/>
<path d="M37.4286 5.67334H45.7551" stroke="white" stroke-width="0.85" stroke-linecap="round" stroke-linejoin="round"/>
<path d="M43.6735 9.83643H52" stroke="white" stroke-width="0.85" stroke-linecap="round" stroke-linejoin="round"/>
<path d="M43.6735 2.55078H52" stroke="white" stroke-width="0.85" stroke-linecap="round" stroke-linejoin="round"/>
</svg>
