<svg width="18" height="18" viewBox="0 0 18 18" fill="none" xmlns="http://www.w3.org/2000/svg">
<path d="M14.722 18H2.95398C1.3249 18 0 16.6508 0 14.9919V3.00813C0 1.34919 1.3249 0 2.95398 0H14.722C16.3511 0 17.676 1.34919 17.676 3.00813V14.9919C17.676 16.6508 16.3511 18 14.722 18ZM2.95398 0.983982C1.85849 0.983982 0.966995 1.89182 0.966995 3.00739V14.9911C0.966995 16.1067 1.85849 17.0145 2.95398 17.0145H14.722C15.8175 17.0145 16.709 16.1067 16.709 14.9911V3.00813C16.709 1.89256 15.8175 0.984722 14.722 0.984722H2.95398V0.983982Z" fill="#E563A5"/>
<path d="M8.83727 13.6184C7.62562 13.6184 6.4873 13.1379 5.63065 12.2655C4.774 11.3932 4.30212 10.2332 4.30212 9.00012C4.30212 7.767 4.774 6.60707 5.63065 5.73472C6.4873 4.86237 7.62635 4.38184 8.83727 4.38184C10.0482 4.38184 11.1872 4.86237 12.0439 5.73472C12.9005 6.60707 13.3724 7.767 13.3724 9.00012C13.3724 10.2332 12.9005 11.3932 12.0439 12.2655C11.1872 13.1379 10.0482 13.6184 8.83727 13.6184ZM8.83727 5.36582C6.86988 5.36582 5.26912 6.99593 5.26912 8.99938C5.26912 11.0028 6.86988 12.6329 8.83727 12.6329C10.8047 12.6329 12.4054 11.0028 12.4054 8.99938C12.4054 6.99593 10.8047 5.36582 8.83727 5.36582Z" fill="#E563A5"/>
<path d="M15.3366 2.50114C15.3366 2.99055 14.9467 3.38754 14.4661 3.38754C13.9855 3.38754 13.5957 2.99055 13.5957 2.50114C13.5957 2.01174 13.9855 1.61475 14.4661 1.61475C14.9467 1.61475 15.3366 2.01174 15.3366 2.50114Z" fill="#E563A5"/>
</svg>
