<svg width="18" height="18" viewBox="0 0 18 18" fill="none" xmlns="http://www.w3.org/2000/svg">
<g clip-path="url(#clip0_265_1326)">
<path d="M14.1588 0.0146633C16.817 -0.213249 18.6648 2.32611 17.7711 4.70728C17.0576 6.60797 14.777 7.4754 12.9658 6.54164C12.7405 6.39877 12.516 6.25675 12.2906 6.11388C10.4973 7.01447 8.70474 7.91422 6.91137 8.81482C6.90797 8.93132 6.90372 9.04698 6.90032 9.16349C8.70474 10.0751 10.5083 10.9868 12.3127 11.8984C14.7217 9.87784 18.3425 11.8355 17.9726 14.971C17.8289 16.1914 16.9318 17.3411 15.7787 17.7731C13.419 18.6567 10.9564 16.8504 11.0746 14.3519C9.28127 13.4513 7.48875 12.5516 5.69538 11.651C5.56273 11.6433 4.75746 12.5524 3.22004 12.4614C1.60695 12.3653 0.152866 10.9893 0.014261 9.36674C-0.251896 6.24484 3.26596 4.37052 5.67413 6.3622C7.46749 5.46161 9.26001 4.56186 11.0534 3.66127L11.0874 3.62725C10.9403 1.86518 12.4063 0.165188 14.1597 0.0146633H14.1588Z" fill="black"/>
</g>
<defs>
<clipPath id="clip0_265_1326">
<rect width="18" height="18" fill="white"/>
</clipPath>
</defs>
</svg>
