<svg width="22" height="22" viewBox="0 0 22 22" fill="none" xmlns="http://www.w3.org/2000/svg">
<g clip-path="url(#clip0_300_933)">
<path d="M0.635684 21.5556C0.865286 20.0953 1.12508 18.7894 1.25315 17.4708C1.31089 16.8749 1.24287 16.1918 0.999663 15.6531C-1.67228 9.74063 1.20869 2.83797 7.29946 0.652811C13.3497 -1.5181 19.9243 1.91004 21.5832 8.17697C22.6712 12.2872 21.6138 15.9241 18.5868 18.8599C15.5038 21.8501 11.7266 22.7439 7.67372 21.3727C6.01076 20.8102 4.521 20.7897 2.90981 21.1269C2.23261 21.2684 1.55044 21.3843 0.636016 21.5559L0.635684 21.5556ZM2.33713 19.5871C3.15235 19.3986 3.49874 19.3516 3.82125 19.2379C5.12487 18.7781 6.30573 18.7446 7.64452 19.4254C8.66911 19.9462 9.98368 20.0608 11.1712 20.0691C15.0585 20.0973 18.4965 17.5033 19.6704 13.8105C20.8672 10.0461 19.5517 5.99214 16.3691 3.63836C13.2356 1.32068 8.99659 1.25674 5.78481 3.47934C2.56706 5.70624 0.999664 9.736 2.23029 13.4017C2.90616 15.4149 3.80366 17.2873 2.33713 19.5871Z" fill="#17CD40"/>
<path d="M9.56928 14.4947C8.11801 13.2673 6.8834 11.7106 5.82563 10.1171C4.97093 8.82975 5.32529 7.33135 6.25763 6.4223C7.06124 5.63848 7.97832 5.78491 8.39671 6.82216C8.81013 7.84683 9.66915 8.89502 8.40003 9.96805C8.28158 10.0681 8.38676 10.6796 8.57422 10.8516C9.60843 11.7997 10.6751 12.7187 11.7966 13.5602C11.992 13.7066 12.7047 13.5559 12.8335 13.3389C13.7841 11.7351 14.8289 12.7121 15.7665 13.2418C16.1269 13.4456 16.5114 14.0995 16.4457 14.4712C16.2384 15.6493 15.2984 16.1021 14.1835 16.232C14.0551 16.2469 13.9247 16.2456 13.7953 16.2519C13.7489 16.3483 10.699 15.4508 9.56928 14.4951V14.4947Z" fill="#17CD40"/>
</g>
<defs>
<clipPath id="clip0_300_933">
<rect width="22" height="22" fill="white"/>
</clipPath>
</defs>
</svg>
