<svg width="20" height="18" viewBox="0 0 20 18" fill="none" xmlns="http://www.w3.org/2000/svg">
<path d="M18.3845 1.63238C17.3373 0.58511 15.9508 0.0127201 14.4711 0.0127201C12.9913 0.0127201 11.6006 0.58935 10.5533 1.63662L10.0064 2.18358L9.45092 1.62815C8.40365 0.58087 7.0087 0 5.52895 0C4.05344 0 2.66273 0.57663 1.61969 1.61966C0.57242 2.66694 -0.00421676 4.05765 2.32169e-05 5.5374C2.32169e-05 7.01715 0.5809 8.40362 1.62817 9.45086L9.59084 17.4136C9.70108 17.5238 9.84948 17.5832 9.99364 17.5832C10.1378 17.5832 10.2862 17.5281 10.3964 17.4178L18.3761 9.46786C19.4233 8.42058 20 7.02987 20 5.55012C20.0042 4.07037 19.4318 2.67966 18.3845 1.63238Z" fill="#E563A5"/>
</svg>
