<svg width="32" height="32" viewBox="0 0 32 32" fill="none" xmlns="http://www.w3.org/2000/svg">
<path d="M29.6294 16.0111L29.6294 16.0111C28.9592 17.0902 27.9621 18.1984 26.8248 19.3226C25.9181 20.2187 24.9041 21.1422 23.8731 22.0813C23.6091 22.3217 23.3439 22.5632 23.0791 22.8056C20.4576 25.2049 17.8782 27.6852 16.5062 30.2368L16.0951 31.0013L15.64 30.2621C14.4352 28.3051 12.864 26.6057 11.1754 24.9979C10.3528 24.2147 9.50707 23.4574 8.6638 22.7024L8.5975 22.6431C7.73444 21.8703 6.87442 21.099 6.05827 20.314C2.79694 17.1773 0.133749 13.7283 0.541251 8.68582L0.541252 8.6858C0.687231 6.88018 1.63864 4.98644 2.98297 3.49067C4.32728 1.99493 6.12049 0.835375 8.01351 0.577828L29.6294 16.0111ZM29.6294 16.0111C31.9111 12.3371 32.3929 7.38506 29.4468 3.77613C25.958 -0.497663 19.5262 -0.473891 16.0561 3.64524M29.6294 16.0111L16.0561 3.64524M16.0561 3.64524C14.1046 1.4387 11.0639 0.162678 8.01353 0.577825L16.0561 3.64524ZM16.037 25.7508C14.9341 24.3202 13.6167 23.0209 12.2686 21.7832C11.722 21.2814 11.1739 20.7927 10.6317 20.3094C9.63947 19.4247 8.66718 18.5579 7.76094 17.6612C4.9724 14.9021 3.02494 12.0608 3.56726 8.23467L3.56726 8.23465C3.71304 7.20591 4.35911 6.08975 5.28528 5.18805C6.21081 4.28697 7.3554 3.65921 8.42833 3.53593C10.3158 3.31914 11.7895 3.79321 12.9241 4.69986C14.0703 5.6159 14.9075 7.00427 15.4449 8.66914L15.5017 8.84512L15.6594 8.94179C15.8255 9.04366 16.0065 9.04206 16.1482 8.99255C16.2688 8.95041 16.3548 8.87747 16.4049 8.82892C16.507 8.72993 16.5936 8.59852 16.6627 8.48251C16.8073 8.23989 16.9694 7.89971 17.1309 7.55458C17.1541 7.50512 17.1773 7.4555 17.2005 7.40586C17.5208 6.72039 17.8434 6.02999 18.1294 5.66386C19.7569 3.58113 22.5274 3.04941 24.8292 3.92171C27.0994 4.782 28.9037 7.01197 28.5618 10.503C28.4257 11.8934 27.7834 13.2484 26.8061 14.5973C25.8286 15.9464 24.5389 17.2587 23.1489 18.564C22.5789 19.0993 21.985 19.6395 21.3912 20.1797C20.5582 20.9375 19.7253 21.6952 18.959 22.4386C17.8408 23.5232 16.8126 24.6245 16.037 25.7508Z" fill="white" stroke="white"/>
</svg>
