<svg width="20" height="18" viewBox="0 0 20 18" fill="none" xmlns="http://www.w3.org/2000/svg">
<path d="M18.3845 1.63238C17.3373 0.58511 15.9508 0.0127201 14.4711 0.0127201C12.9913 0.0127201 11.6006 0.58935 10.5533 1.63662L10.0064 2.18358L9.45092 1.62815C8.40365 0.58087 7.0087 0 5.52895 0C4.05344 0 2.66273 0.57663 1.61969 1.61966C0.57242 2.66694 -0.00421676 4.05765 2.32169e-05 5.5374C2.32169e-05 7.01715 0.5809 8.40362 1.62817 9.45086L9.59084 17.4136C9.70108 17.5238 9.84948 17.5832 9.99364 17.5832C10.1378 17.5832 10.2862 17.5281 10.3964 17.4178L18.3761 9.46786C19.4233 8.42058 20 7.02987 20 5.55012C20.0042 4.07037 19.4318 2.67966 18.3845 1.63238ZM17.5705 8.65802L9.99364 16.2052L2.43377 8.6453C1.60273 7.81427 1.14482 6.71187 1.14482 5.5374C1.14482 4.36293 1.59849 3.26053 2.42953 2.43374C3.25632 1.60695 4.35872 1.14903 5.52895 1.14903C6.70342 1.14903 7.81005 1.60695 8.64109 2.43798L9.59932 3.39621C9.82404 3.62093 10.1844 3.62093 10.4092 3.39621L11.3589 2.44646C12.1899 1.61542 13.2966 1.15751 14.4668 1.15751C15.637 1.15751 16.7394 1.61543 17.5705 2.44222C18.4015 3.27325 18.8552 4.37565 18.8552 5.55012C18.8594 6.72459 18.4015 7.82699 17.5705 8.65802Z" fill="#363847"/>
</svg>
