<svg width="16" height="15" viewBox="0 0 16 15" fill="none" xmlns="http://www.w3.org/2000/svg">
<path fill-rule="evenodd" clip-rule="evenodd" d="M10.6982 9.97602C11.6997 10.3542 12.6727 10.8582 13.585 11.6253C13.787 11.7954 13.8866 12.0237 13.8688 12.28C13.8553 12.4817 13.8381 12.6895 13.8233 12.7124C13.1845 13.7058 12.6071 14.4991 11.2565 14.6283C6.80187 15.0546 0.0133276 6.34617 1.70293 2.37218C2.21517 1.16788 3.17242 0.861969 4.34766 0.556195C4.3748 0.548959 4.58719 0.592545 4.79311 0.637057C5.05464 0.69376 5.25518 0.849876 5.36776 1.0837C5.87632 2.13956 6.10476 3.17668 6.19908 4.20446C6.23551 4.60254 5.96559 4.95738 5.56095 5.04375L5.20898 5.11874C4.95879 5.1722 4.76715 5.3161 4.65345 5.53623C4.53975 5.75636 4.53535 5.99128 4.64121 6.21662C5.58144 8.21919 6.50625 9.40536 8.2431 10.8373C8.43882 10.9986 8.67507 11.0611 8.92742 11.0189C9.17978 10.9766 9.37815 10.8412 9.50274 10.6264L9.67769 10.324C9.87883 9.97632 10.3105 9.82885 10.6983 9.97522L10.6982 9.97602Z" fill="white"/>
</svg>
